<svg id="visual" viewBox="0 0 960 540" width="960" height="540" xmlns="http://www.w3.org/2000/svg" xmlns:xlink="http://www.w3.org/1999/xlink" version="1.1"><rect x="0" y="0" width="960" height="540" fill="#e1dcff"></rect><path d="M0 468L22.8 461C45.7 454 91.3 440 137 442.2C182.7 444.3 228.3 462.7 274 470C319.7 477.3 365.3 473.7 411.2 466.3C457 459 503 448 548.8 443.3C594.7 438.7 640.3 440.3 686 441.8C731.7 443.3 777.3 444.7 823 442.3C868.7 440 914.3 434 937.2 431L960 428L960 541L937.2 541C914.3 541 868.7 541 823 541C777.3 541 731.7 541 686 541C640.3 541 594.7 541 548.8 541C503 541 457 541 411.2 541C365.3 541 319.7 541 274 541C228.3 541 182.7 541 137 541C91.3 541 45.7 541 22.8 541L0 541Z" fill="#001220" stroke-linecap="round" stroke-linejoin="miter"></path></svg>