<svg id="visual" viewBox="0 0 960 540" width="960" height="540" xmlns="http://www.w3.org/2000/svg" xmlns:xlink="http://www.w3.org/1999/xlink" version="1.1"><rect x="0" y="0" width="960" height="540" fill="#001220"></rect><path d="M0 434L22.8 441.8C45.7 449.7 91.3 465.3 137 465.5C182.7 465.7 228.3 450.3 274 443.3C319.7 436.3 365.3 437.7 411.2 441.5C457 445.3 503 451.7 548.8 457C594.7 462.3 640.3 466.7 686 471.2C731.7 475.7 777.3 480.3 823 478.8C868.7 477.3 914.3 469.7 937.2 465.8L960 462L960 541L937.2 541C914.3 541 868.7 541 823 541C777.3 541 731.7 541 686 541C640.3 541 594.7 541 548.8 541C503 541 457 541 411.2 541C365.3 541 319.7 541 274 541C228.3 541 182.7 541 137 541C91.3 541 45.7 541 22.8 541L0 541Z" fill="#e1dcff" stroke-linecap="round" stroke-linejoin="miter"></path></svg>