<svg id="visual" viewBox="0 0 675 900" width="675" height="900" xmlns="http://www.w3.org/2000/svg" xmlns:xlink="http://www.w3.org/1999/xlink" version="1.1"><rect x="0" y="0" width="675" height="900" fill="#001220"></rect><defs><linearGradient id="grad1_0" x1="0%" y1="0%" x2="100%" y2="100%"><stop offset="30%" stop-color="#001220" stop-opacity="1"></stop><stop offset="70%" stop-color="#001220" stop-opacity="1"></stop></linearGradient></defs><defs><linearGradient id="grad2_0" x1="0%" y1="0%" x2="100%" y2="100%"><stop offset="30%" stop-color="#001220" stop-opacity="1"></stop><stop offset="70%" stop-color="#001220" stop-opacity="1"></stop></linearGradient></defs><g transform="translate(675, 0)"><path d="M0 253.1C-24.4 246.8 -48.9 240.4 -76.3 234.9C-103.8 229.4 -134.2 224.9 -148.8 204.8C-163.4 184.7 -162.2 149.2 -173.1 125.8C-184.1 102.4 -207.2 91.2 -222.5 72.3C-237.9 53.4 -245.5 26.7 -253.1 0L0 0Z" fill="#FBAE3C"></path></g><g transform="translate(0, 900)"><path d="M0 -253.1C27.7 -248 55.4 -242.9 73.9 -227.3C92.3 -211.7 101.6 -185.5 126.4 -173.9C151.1 -162.4 191.4 -165.4 204.8 -148.8C218.2 -132.1 204.7 -95.8 208.3 -67.7C211.9 -39.6 232.5 -19.8 253.1 0L0 0Z" fill="#FBAE3C"></path></g></svg>